<svg width="406" height="306" viewBox="0 0 406 306" fill="none" xmlns="http://www.w3.org/2000/svg">
<g clip-path="url(#clip0_0_1)">
<path opacity="0.18" d="M396.57 253.783C392.402 263.229 386.396 271.751 378.902 278.852C371.407 285.953 362.574 291.491 352.917 295.142C340.217 299.904 326.487 301.143 312.954 302.174C261.196 306.1 209.254 307.009 157.39 304.897C116.65 303.238 88.0139 288.229 51.6866 271.879C46.6515 269.76 41.7762 267.28 37.0985 264.458C16.6689 251.418 6.93822 226.559 5.04923 202.193C4.90637 200.352 4.81906 198.518 4.7635 196.685C4.58096 189.327 4.99368 181.716 7.66048 174.803C17.5896 148.984 54.5836 140.42 61.695 113.688C65.3698 99.8464 59.6949 84.6076 64.2587 71.0434C68.5049 58.4395 80.5452 50.2725 92.3554 44.1769C141.707 18.6835 201.194 13.5801 254.181 30.2555C288.54 41.0577 322.994 64.8684 329.161 100.354C332.685 120.641 326.621 142.904 335.979 161.246C346.091 181.089 371.195 190.224 387.188 204.86C393.72 210.828 398.728 217.718 400.562 226.615C402.443 235.727 400.3 245.251 396.57 253.783Z" fill="#7A18FA"/>
<path d="M396.57 253.783C392.402 263.229 386.396 271.751 378.902 278.852C371.407 285.953 362.574 291.491 352.917 295.142C340.217 299.904 326.487 301.143 312.954 302.174C261.196 306.1 209.254 307.009 157.39 304.897C116.65 303.238 88.0139 288.229 51.6866 271.879C46.6516 269.76 41.7762 267.28 37.0985 264.458C16.6689 251.418 6.93824 226.559 5.04926 202.193C5.8004 201.935 6.57754 201.759 7.36684 201.669C19.1928 199.979 31.249 198.304 43.083 200.201C50.4326 201.399 57.5044 203.963 64.8301 205.304C85.4661 209.13 106.142 203.09 126.841 204.415C144.342 205.534 161.581 209.289 179.312 209.82C197.98 210.392 216.671 209.741 235.331 208.892C272.635 207.185 310.2 204.511 347.464 208.622C352.631 209.185 357.782 209.884 362.988 209.416C367.163 209.027 371.227 207.876 375.322 206.947C379.253 206.051 383.226 205.357 387.228 204.868C393.76 210.836 398.768 217.726 400.602 226.623C402.443 235.726 400.3 245.251 396.57 253.783Z" fill="url(#paint0_linear_0_1)"/>
<path d="M207.385 1.07941C212.703 -0.74608 218.664 -0.127 223.878 2.00009C228.131 3.63431 231.816 6.47233 234.482 10.1672C235.792 12.0205 236.696 14.1291 237.137 16.3555C237.577 18.5819 237.543 20.876 237.037 23.0885C236.244 26.049 234.506 28.9301 235.053 31.9461C235.529 34.597 237.728 36.5971 240.022 38.0099C242.316 39.4227 244.871 40.4624 246.879 42.2641C248.613 43.8718 249.832 45.9567 250.383 48.2561C250.934 50.5556 250.792 52.9666 249.975 55.1854C249.324 56.8601 248.268 58.5348 248.562 60.3126C248.856 62.0905 250.514 63.416 252.221 64.0827C253.927 64.7494 255.784 64.9716 257.491 65.6701C259.104 66.3138 260.528 67.3541 261.632 68.6946C262.735 70.0352 263.483 71.6327 263.805 73.339C264.127 75.0454 264.013 76.8054 263.474 78.4561C262.935 80.1068 261.988 81.5947 260.721 82.7821C258.396 84.9727 255.205 85.9568 252.118 86.7505C240.143 89.7597 227.744 90.7178 215.449 89.584C205.98 88.703 196.496 86.5759 187.043 87.6712C181.146 88.3538 175.447 90.2825 169.582 91.0523C163.716 91.8222 157.248 91.2587 152.605 87.5522C150.275 85.5532 148.395 83.0836 147.088 80.3057C144.771 75.742 143.318 70.5513 144.168 65.5113C145.017 60.4714 148.557 55.6854 153.517 54.3996C155.724 53.8361 158.049 53.9869 160.327 53.8679C164.832 53.6186 169.213 52.299 173.106 50.0185C174.28 49.3279 175.487 48.4311 175.804 47.1215C176.328 44.9468 174.272 43.153 173.177 41.1847C170.986 37.2797 173.407 31.6048 177.741 30.4778C180.281 29.819 183.392 30.3984 185.178 28.4777C187.416 26.0966 186.281 22.3027 188.694 19.7947C190.853 17.5565 193.869 16.7151 195.599 13.9293C198.988 8.43694 200.528 3.44461 207.385 1.07941Z" fill="#3F3D56"/>
<path d="M207.385 1.07941C212.703 -0.74608 218.664 -0.127 223.878 2.00009C228.131 3.63431 231.816 6.47233 234.482 10.1672C235.792 12.0205 236.696 14.1291 237.137 16.3555C237.577 18.5819 237.543 20.876 237.037 23.0885C236.244 26.049 234.506 28.9301 235.053 31.9461C235.529 34.597 237.728 36.5971 240.022 38.0099C242.316 39.4227 244.871 40.4624 246.879 42.2641C248.613 43.8718 249.832 45.9567 250.383 48.2561C250.934 50.5556 250.792 52.9666 249.975 55.1854C249.324 56.8601 248.268 58.5348 248.562 60.3126C248.856 62.0905 250.514 63.416 252.221 64.0827C253.927 64.7494 255.784 64.9716 257.491 65.6701C259.104 66.3138 260.528 67.3541 261.632 68.6946C262.735 70.0352 263.483 71.6327 263.805 73.339C264.127 75.0454 264.013 76.8054 263.474 78.4561C262.935 80.1068 261.988 81.5947 260.721 82.7821C258.396 84.9727 255.205 85.9568 252.118 86.7505C240.143 89.7597 227.744 90.7178 215.449 89.584C205.98 88.703 196.496 86.5759 187.043 87.6712C181.146 88.3538 175.447 90.2825 169.582 91.0523C163.716 91.8222 157.248 91.2587 152.605 87.5522C150.275 85.5532 148.395 83.0836 147.088 80.3057C144.771 75.742 143.318 70.5513 144.168 65.5113C145.017 60.4714 148.557 55.6854 153.517 54.3996C155.724 53.8361 158.049 53.9869 160.327 53.8679C164.832 53.6186 169.213 52.299 173.106 50.0185C174.28 49.3279 175.487 48.4311 175.804 47.1215C176.328 44.9468 174.272 43.153 173.177 41.1847C170.986 37.2797 173.407 31.6048 177.741 30.4778C180.281 29.819 183.392 30.3984 185.178 28.4777C187.416 26.0966 186.281 22.3027 188.694 19.7947C190.853 17.5565 193.869 16.7151 195.599 13.9293C198.988 8.43694 200.528 3.44461 207.385 1.07941Z" fill="url(#paint1_linear_0_1)"/>
<path d="M49.5754 252.378C63.3697 271.133 87.9583 278.729 111.047 281.689C346.503 311.85 379.354 254.235 380.426 252.989C384.299 248.505 327.122 197.986 158.835 209.392C147.065 210.186 42.0988 242.211 49.5754 252.378Z" fill="#7A18FA"/>
<path d="M110.15 223.369C108.487 224.129 107.035 225.285 105.92 226.734C104.912 228.25 104.689 230.441 105.872 231.822C106.713 232.814 108.055 233.195 109.324 233.512C128.392 238.203 148.303 238.282 167.407 233.742C175.137 231.893 182.717 229.29 190.599 228.25C196.948 227.417 203.417 227.615 209.838 227.901C233.466 228.948 257.046 231.075 280.548 233.742C293.882 235.258 307.319 236.917 320.677 235.671C322.002 235.544 323.439 235.338 324.352 234.369C326.463 232.139 323.899 228.504 321.113 227.226C316.994 225.313 311.391 224.512 310.002 220.178C309.873 219.445 309.603 218.745 309.208 218.114C308.489 217.449 307.545 217.081 306.565 217.083C252.641 210.812 198.233 209.845 144.12 214.194C131.516 215.194 121.278 217.337 110.15 223.369Z" fill="url(#paint2_linear_0_1)"/>
<path d="M100.903 170.739C100.903 170.739 110.706 152.032 153.478 166.731C196.25 181.43 257.292 207.725 257.292 207.725L252.395 226.44C252.395 226.44 151.7 214.408 137.437 206.384C123.174 198.359 98.2287 197.478 100.903 170.739Z" fill="#7A18FA"/>
<path d="M100.903 170.739C100.903 170.739 110.706 152.032 153.478 166.731C196.25 181.43 257.292 207.725 257.292 207.725L252.395 226.44C252.395 226.44 151.7 214.408 137.437 206.384C123.174 198.359 98.2287 197.478 100.903 170.739Z" fill="#0E0124"/>
<path d="M171.748 209.503C171.748 209.503 246.157 173.453 282.278 169.406C318.399 165.358 321.042 173.414 322.383 175.2C323.725 176.985 337.082 200.145 288.516 211.289C239.95 222.432 170.447 229.107 170.447 229.107C170.447 229.107 166.843 224.655 171.748 209.503Z" fill="#7A18FA"/>
<path d="M171.748 209.503C171.748 209.503 246.157 173.453 282.278 169.406C318.399 165.358 321.042 173.414 322.383 175.2C323.725 176.985 337.082 200.145 288.516 211.289C239.95 222.432 170.447 229.107 170.447 229.107C170.447 229.107 166.843 224.655 171.748 209.503Z" fill="#0E0124"/>
<path d="M202.115 61.7651C199.031 63.6627 195.747 65.212 192.321 66.3844C194.137 69.3529 196.607 71.8669 199.543 73.734C203.821 76.3214 208.98 77.0278 213.981 77.0754C216.808 77.1878 219.635 76.8475 222.354 76.0674C225.997 74.8928 229.116 72.5038 232.029 70.0195C233.331 68.8925 234.744 67.3924 234.41 65.7098C231.745 65.866 229.096 65.2069 226.815 63.8202C224.533 62.4336 222.728 60.3852 221.64 57.9475C221.202 56.8348 220.846 55.6915 220.576 54.5266C220.449 54.0346 219.965 50.9233 219.624 50.5582C219.209 50.1576 218.705 49.8605 218.153 49.6909C217.602 49.5213 217.018 49.484 216.449 49.5819C213.893 50.0423 210.346 49.1692 208.512 51.2566C206.369 53.6456 204.98 59.9555 202.115 61.7651Z" fill="#E0CAB6"/>
<path d="M210.322 59.8602C211.651 60.727 213.235 61.116 214.814 60.9635C216.401 60.7809 217.64 56.995 218.402 55.5902C218.626 55.1503 218.817 54.6939 218.973 54.225C219.651 52.5583 220.066 50.7965 220.203 49.0025C220.203 49.5026 216.894 50.0264 216.465 50.0899C215.084 50.2963 213.679 50.3677 212.29 50.5105C210.361 50.709 206.504 50.7963 207.361 53.5821C207.79 55.0028 209.076 59.0824 210.322 59.8602Z" fill="#E0CAB6"/>
<path d="M192.329 66.3844C192.329 66.3844 181.55 67.5908 178.653 73.607C175.757 79.6232 133.413 134.428 133.207 137.991C133 141.555 153.255 162.056 153.255 162.056L162.613 141.999L159.716 135.769L177.765 110.815L177.05 175.263L215.013 190.423L249.737 177.073L251.022 110.593C251.022 110.593 266.174 131.975 266.618 137.325C267.063 142.674 264.841 145.793 264.841 145.793L277.762 164.501C277.762 164.501 297.81 143.563 296.477 133.761C295.144 123.959 253.705 74.0515 249.737 71.8609C245.768 69.6703 234.402 65.7415 234.402 65.7415L192.329 66.3844Z" fill="#7A18FA"/>
<path d="M170.304 173.088C167.07 173.44 163.866 174.023 160.716 174.834C159.637 175.112 158.406 175.557 158.065 176.62C157.597 178.065 159.121 179.351 160.51 179.97C169.121 183.803 179.201 180.62 188.519 182.113C196.504 183.398 203.528 188.049 211.266 190.423C211.634 190.562 212.024 190.632 212.417 190.629C213.287 190.644 214.156 190.575 215.013 190.423C218.711 189.145 221.822 187.629 225.886 187.168L241.173 185.446C247.562 184.724 252.808 181.628 259.166 180.684C261.872 180.279 264.721 180.533 267.237 179.406C268.158 178.985 269.095 177.914 268.507 177.096C268.257 176.813 267.924 176.616 267.555 176.533C264.801 175.636 261.848 175.7 258.959 175.739C229.458 176.263 199.647 169.914 170.304 173.088Z" fill="#7A18FA"/>
<path d="M170.304 173.088C167.07 173.44 163.866 174.023 160.716 174.834C159.637 175.112 158.406 175.557 158.065 176.62C157.597 178.065 159.121 179.351 160.51 179.97C169.121 183.803 179.201 180.62 188.519 182.113C196.504 183.398 203.528 188.049 211.266 190.423C211.634 190.562 212.024 190.632 212.417 190.629C213.287 190.644 214.156 190.575 215.013 190.423C218.711 189.145 221.822 187.629 225.886 187.168L241.173 185.446C247.562 184.724 252.808 181.628 259.166 180.684C261.872 180.279 264.721 180.533 267.237 179.406C268.158 178.985 269.095 177.914 268.507 177.096C268.257 176.813 267.924 176.616 267.555 176.533C264.801 175.636 261.848 175.7 258.959 175.739C229.458 176.263 199.647 169.914 170.304 173.088Z" fill="url(#paint3_linear_0_1)"/>
<path d="M250.61 99.3464L251.356 110.26L264.848 131.205C266.002 132.999 266.7 135.047 266.88 137.173C267.06 139.298 266.716 141.434 265.88 143.396L264.856 145.777L271.817 151.754L278.746 136.452L250.61 99.3464Z" fill="url(#paint4_linear_0_1)"/>
<path d="M178.78 152.976C180.154 153.456 181.455 154.124 182.646 154.96C185.662 157.27 186.654 161.358 186.9 165.151C186.998 165.85 186.907 166.563 186.638 167.215C186.32 167.7 185.876 168.09 185.352 168.34C184.829 168.59 184.247 168.693 183.67 168.636C180.876 168.636 178.384 166.747 175.598 166.477C174.169 166.334 172.709 166.62 171.304 166.334C168.002 165.659 166.161 162.262 164.161 159.572C162.314 157.143 160.015 155.095 157.39 153.54C152.271 150.516 155.009 144.714 160.565 145.841C166.708 147.103 172.931 150.603 178.78 152.976Z" fill="#E0CAB6"/>
<path d="M249.887 151.349C248.601 151.574 247.361 152.014 246.22 152.651C244.585 153.69 243.578 155.46 242.252 156.841C241.125 157.976 239.68 158.969 239.276 160.516C239.066 161.47 239.187 162.466 239.617 163.342C240.286 164.725 241.408 165.839 242.797 166.497C244.186 167.155 245.758 167.319 247.252 166.961C248.475 166.628 249.578 165.945 250.792 165.604C254.562 164.532 258.983 166.747 262.34 164.739C263.401 163.99 264.345 163.089 265.142 162.064C266.948 160.062 269.052 158.351 271.381 156.992C271.97 156.719 272.486 156.311 272.889 155.802C273.682 154.548 272.817 152.913 271.865 151.77C269.079 148.436 267.476 147.27 263.277 148.23C258.785 149.246 254.34 150.309 249.887 151.349Z" fill="#E0CAB6"/>
<path d="M161.859 213.622C154.374 214.368 146.874 211.598 139.382 212.305C136.68 212.594 134.028 213.234 131.492 214.21C130.261 214.586 129.124 215.222 128.159 216.075C126.492 217.718 126.167 220.329 126.571 222.631C127.365 227.123 130.667 230.956 134.746 232.996C137.267 234.288 140.098 234.852 142.921 234.623C144.263 234.461 145.59 234.196 146.89 233.83C149.818 233.216 152.667 232.274 155.382 231.02C157.097 230.147 158.676 229.036 160.399 228.194C162.843 227.004 165.534 226.393 167.939 225.131C168.126 225.05 168.295 224.934 168.439 224.789C168.587 224.604 168.698 224.391 168.764 224.162C169.961 220.793 170.544 217.237 170.486 213.662C170.486 213.154 170.653 212.074 170.129 211.797C169.724 211.59 167.978 212.384 167.51 212.511C165.66 213.035 163.77 213.407 161.859 213.622Z" fill="#E0CAB6"/>
<path d="M266.158 224.083C269.761 224.996 273.031 226.917 276.603 227.925C279.672 228.712 282.833 229.077 286 229.012C290.762 229.012 295.771 228.647 299.898 226.226C300.563 225.875 301.145 225.385 301.604 224.789C302.668 223.273 302.2 221.178 301.493 219.464C300.271 216.456 298.263 213.527 295.239 212.321C291.667 210.932 287.691 212.321 283.976 213.217C274.833 215.511 265.221 215.162 255.975 216.987C255.481 216.978 255.002 217.157 254.636 217.489C254.27 217.821 254.045 218.281 254.007 218.773C253.745 219.884 253.062 221.718 253.483 222.861C253.967 224.194 255.284 223.718 256.443 223.654C259.683 223.256 262.966 223.401 266.158 224.083Z" fill="#E0CAB6"/>
<path d="M273.666 219.861C273.34 220.504 272.958 221.118 272.523 221.694C271.866 222.638 271.583 223.792 271.73 224.932C271.914 225.603 272.232 226.23 272.665 226.776C273.097 227.321 273.635 227.774 274.246 228.107C277.722 230.377 282.064 230.798 286.215 230.941C288.438 231.077 290.671 230.979 292.874 230.647C294.445 230.338 295.993 229.924 297.509 229.409C299.046 229.03 300.495 228.354 301.771 227.417C302.745 226.553 303.492 225.462 303.946 224.242C304.559 222.85 304.726 221.303 304.422 219.813C304.08 218.673 303.513 217.612 302.755 216.694C301.976 215.651 301.127 214.662 300.215 213.733C299.549 212.99 298.739 212.391 297.834 211.971C296.746 211.622 295.598 211.5 294.461 211.614C287.938 211.773 281.438 212.455 275.024 213.654C274.522 213.712 274.044 213.898 273.635 214.194C272.801 214.916 273.635 215.876 273.793 216.71C274.077 217.748 274.032 218.848 273.666 219.861Z" fill="#7A18FA"/>
<path d="M158.621 222.472C159.367 222.988 160.208 223.345 160.922 223.901C161.298 224.155 161.605 224.499 161.817 224.9C162.028 225.301 162.138 225.748 162.137 226.202C162.034 227.298 161.01 228.052 160.073 228.583C155.766 231.188 151.103 233.153 146.231 234.417C144.105 235.055 141.885 235.324 139.667 235.211C137.857 234.995 136.089 234.511 134.421 233.774C131.492 232.568 128.651 230.941 126.683 228.464C124.714 225.988 123.762 222.535 124.881 219.575C125.825 217.067 128.056 215.297 130.183 213.686C131.268 212.778 132.493 212.052 133.81 211.535C135.1 211.172 136.439 211.012 137.778 211.059C141.294 211.003 144.803 211.011 148.319 211.011C150.7 211.011 155.422 210.971 155.97 214.075C156.224 215.495 155.621 216.924 155.97 218.4C156.311 220.042 157.258 221.495 158.621 222.472Z" fill="#7A18FA"/>
<path d="M273.666 219.861C273.34 220.504 272.958 221.118 272.523 221.694C271.866 222.638 271.583 223.792 271.73 224.932C271.914 225.603 272.232 226.23 272.665 226.776C273.097 227.321 273.635 227.774 274.246 228.107C277.722 230.377 282.064 230.798 286.215 230.941C288.438 231.077 290.671 230.979 292.874 230.647C294.445 230.338 295.993 229.924 297.509 229.409C299.046 229.03 300.495 228.354 301.771 227.417C302.745 226.553 303.492 225.462 303.946 224.242C304.559 222.85 304.726 221.303 304.422 219.813C304.08 218.673 303.513 217.612 302.755 216.694C301.976 215.651 301.127 214.662 300.215 213.733C299.549 212.99 298.739 212.391 297.834 211.971C296.746 211.622 295.598 211.5 294.461 211.614C287.938 211.773 281.438 212.455 275.024 213.654C274.522 213.712 274.044 213.898 273.635 214.194C272.801 214.916 273.635 215.876 273.793 216.71C274.077 217.748 274.032 218.848 273.666 219.861Z" fill="url(#paint5_linear_0_1)"/>
<path d="M158.621 222.472C159.367 222.988 160.208 223.345 160.922 223.901C161.298 224.155 161.605 224.499 161.817 224.9C162.028 225.301 162.138 225.748 162.137 226.202C162.034 227.298 161.01 228.052 160.073 228.583C155.766 231.188 151.103 233.153 146.231 234.417C144.105 235.055 141.885 235.324 139.667 235.211C137.857 234.995 136.089 234.511 134.421 233.774C131.492 232.568 128.651 230.941 126.683 228.464C124.714 225.988 123.762 222.535 124.881 219.575C125.825 217.067 128.056 215.297 130.183 213.686C131.268 212.778 132.493 212.052 133.81 211.535C135.1 211.172 136.439 211.012 137.778 211.059C141.294 211.003 144.803 211.011 148.319 211.011C150.7 211.011 155.422 210.971 155.97 214.075C156.224 215.495 155.621 216.924 155.97 218.4C156.311 220.042 157.258 221.495 158.621 222.472Z" fill="url(#paint6_linear_0_1)"/>
<path d="M199.147 27.4935C199.147 27.4935 198.48 55.5664 213.187 54.0028C227.894 52.4392 228.561 26.6204 228.561 26.6204C228.561 26.6204 222.545 11.4688 209.846 13.6991C197.147 15.9294 199.147 27.4935 199.147 27.4935Z" fill="#E0CAB6"/>
<path d="M206.52 15.2865C208.536 23.7155 217.267 29.9698 225.894 29.1841C227.378 29.0412 229.069 28.5491 229.64 27.176C229.853 26.5458 229.921 25.8757 229.839 25.2156C229.649 20.9123 228.237 16.7522 225.767 13.2229C224.524 11.4798 222.931 10.0148 221.091 8.92159C219.25 7.82834 217.201 7.13077 215.076 6.87338C208.917 6.29398 203.171 10.1196 198.988 14.7071C196.377 17.5882 188.479 30.7159 197.091 31.1286C199.845 31.2556 202.512 29.2555 203.837 26.9855C205.933 23.3584 204.123 18.6835 206.52 15.2865Z" fill="#3F3D56"/>
<path d="M178.511 99.902L177.765 110.815L159.724 135.761L162.613 141.999L160.518 145.841L150.358 137.023L178.511 99.902Z" fill="url(#paint7_linear_0_1)"/>
<path d="M193.154 68.7337C193.75 70.3211 195.742 70.7656 197.4 71.1704C200.575 71.9641 203.575 73.5514 206.774 74.3451C210.118 75.0733 213.536 75.3983 216.957 75.3134C221.275 75.3849 225.6 75.4563 229.91 75.1468C235.688 74.742 241.474 73.6784 247.236 74.2578C247.625 73.9721 247.173 73.3927 246.752 73.1546C243.752 71.4561 240.609 70.0354 237.506 68.5353C234.934 67.2813 232.744 67.4321 229.886 67.5988C222.068 68.0432 214.235 67.5987 206.409 67.6781C201.971 67.7 197.54 68.0528 193.154 68.7337Z" fill="url(#paint8_linear_0_1)"/>
<path d="M262.142 107.863H169.764V178.073H262.142V107.863Z" fill="#7A18FA"/>
<path d="M262.555 107.863H170.177V112.776H262.555V107.863Z" fill="url(#paint9_linear_0_1)"/>
<path d="M262.555 112.871H170.177V177.628H262.555V112.871Z" fill="url(#paint10_linear_0_1)"/>
</g>
<defs>
<linearGradient id="paint0_linear_0_1" x1="197.996" y1="270.998" x2="207.171" y2="178.398" gradientUnits="userSpaceOnUse">
<stop stop-color="white" stop-opacity="0"/>
<stop offset="0.76" stop-color="white" stop-opacity="0.76"/>
<stop offset="0.99" stop-color="white"/>
</linearGradient>
<linearGradient id="paint1_linear_0_1" x1="209.274" y1="17.7549" x2="201.345" y2="97.8463" gradientUnits="userSpaceOnUse">
<stop stop-opacity="0"/>
<stop offset="0.99"/>
</linearGradient>
<linearGradient id="paint2_linear_0_1" x1="213.87" y1="188.462" x2="225.132" y2="578.268" gradientUnits="userSpaceOnUse">
<stop stop-opacity="0"/>
<stop offset="0.99"/>
</linearGradient>
<linearGradient id="paint3_linear_0_1" x1="188.265" y1="131.094" x2="280.865" y2="302.532" gradientUnits="userSpaceOnUse">
<stop stop-opacity="0"/>
<stop offset="0.99"/>
</linearGradient>
<linearGradient id="paint4_linear_0_1" x1="284.81" y1="133.888" x2="80.1167" y2="61.6223" gradientUnits="userSpaceOnUse">
<stop stop-opacity="0"/>
<stop offset="0.99"/>
</linearGradient>
<linearGradient id="paint5_linear_0_1" x1="271.642" y1="221.321" x2="304.549" y2="221.321" gradientUnits="userSpaceOnUse">
<stop stop-opacity="0"/>
<stop offset="0.99"/>
</linearGradient>
<linearGradient id="paint6_linear_0_1" x1="124.405" y1="223.147" x2="162.145" y2="223.147" gradientUnits="userSpaceOnUse">
<stop stop-opacity="0"/>
<stop offset="0.99"/>
</linearGradient>
<linearGradient id="paint7_linear_0_1" x1="143.469" y1="132.062" x2="348.162" y2="59.7967" gradientUnits="userSpaceOnUse">
<stop stop-opacity="0"/>
<stop offset="0.99"/>
</linearGradient>
<linearGradient id="paint8_linear_0_1" x1="212.965" y1="78.3453" x2="276.373" y2="18.2787" gradientUnits="userSpaceOnUse">
<stop stop-color="white" stop-opacity="0"/>
<stop offset="0.76" stop-color="white" stop-opacity="0.76"/>
<stop offset="0.99" stop-color="white"/>
</linearGradient>
<linearGradient id="paint9_linear_0_1" x1="216.005" y1="118.76" x2="216.838" y2="99.5686" gradientUnits="userSpaceOnUse">
<stop stop-color="white" stop-opacity="0"/>
<stop offset="0.76" stop-color="white" stop-opacity="0.76"/>
<stop offset="0.99" stop-color="white"/>
</linearGradient>
<linearGradient id="paint10_linear_0_1" x1="194.226" y1="188.137" x2="244.347" y2="91.0603" gradientUnits="userSpaceOnUse">
<stop stop-color="white" stop-opacity="0"/>
<stop offset="0.76" stop-color="white" stop-opacity="0.76"/>
<stop offset="0.99" stop-color="white"/>
</linearGradient>
<clipPath id="clip0_0_1">
<rect width="406" height="306" fill="white"/>
</clipPath>
</defs>
</svg>
