<svg width="900" height="600" viewBox="0 0 900 600" fill="none" xmlns="http://www.w3.org/2000/svg">
<g clip-path="url(#clip0_0_1)">
<path fill-rule="evenodd" clip-rule="evenodd" d="M319.902 124.045C298.122 124.045 280.465 141.701 280.465 163.482V172.456H634.103V163.482C634.103 141.701 616.447 124.045 594.666 124.045H319.902ZM634.103 223.376H280.465V438.246C280.465 460.026 298.122 477.683 319.902 477.683H594.666C616.447 477.683 634.103 460.026 634.103 438.246V223.376V223.376Z" fill="#7D53DE"/>
<path d="M280.465 172.456H265.677C265.677 180.623 272.298 187.245 280.465 187.245V172.456ZM634.103 172.456V187.245C642.271 187.245 648.892 180.623 648.892 172.456H634.103ZM634.103 223.376H648.892C648.892 215.208 642.271 208.587 634.103 208.587V223.376ZM280.465 223.376V208.587C272.298 208.587 265.677 215.208 265.677 223.376H280.465ZM295.254 163.482C295.254 149.869 306.289 138.834 319.902 138.834V109.256C289.954 109.256 265.677 133.534 265.677 163.482H295.254ZM295.254 172.456V163.482H265.677V172.456H295.254ZM280.465 187.245H634.103V157.667H280.465V187.245ZM619.314 163.482V172.456H648.892V163.482H619.314ZM594.666 138.834C608.279 138.834 619.314 149.869 619.314 163.482H648.892C648.892 133.534 624.614 109.256 594.666 109.256V138.834ZM319.902 138.834H594.666V109.256H319.902V138.834V138.834ZM634.103 208.587H280.465V238.165H634.103V208.587ZM295.254 438.246V223.376H265.677V438.246H295.254ZM319.902 462.894C306.289 462.894 295.254 451.858 295.254 438.246H265.677C265.677 468.194 289.954 492.471 319.902 492.471V462.894ZM594.666 462.894H319.902V492.471H594.666V462.894V462.894ZM619.314 438.246C619.314 451.858 608.279 462.894 594.666 462.894V492.471C624.614 492.471 648.892 468.194 648.892 438.246H619.314ZM619.314 223.376V438.246H648.892V223.376H619.314Z" fill="#7D53DE"/>
<path d="M703.047 431.554L670.45 464.151C669.262 465.339 669.262 467.263 670.449 468.45C671.636 469.637 673.561 469.637 674.748 468.45L707.346 435.852C708.533 434.665 708.533 432.74 707.346 431.553C706.159 430.366 704.234 430.367 703.047 431.554Z" fill="#E1E4E5"/>
<path d="M699.858 454.892L690.457 464.293C689.269 465.481 689.269 467.405 690.456 468.592C691.643 469.779 693.568 469.779 694.755 468.592L704.156 459.191C705.343 458.004 705.343 456.079 704.156 454.892C702.969 453.705 701.045 453.705 699.858 454.892Z" fill="#E1E4E5"/>
<path d="M216.173 147.988L237.41 126.751C238.183 125.978 238.183 124.724 237.41 123.951C236.637 123.178 235.383 123.178 234.61 123.951L213.373 145.187C212.6 145.961 212.6 147.214 213.373 147.988C214.146 148.761 215.4 148.761 216.173 147.988Z" fill="#E1E4E5"/>
<path d="M218.251 132.783L224.376 126.658C225.149 125.885 225.149 124.631 224.376 123.858C223.603 123.085 222.349 123.085 221.576 123.858L215.451 129.983C214.678 130.756 214.678 132.01 215.451 132.783C216.224 133.556 217.478 133.556 218.251 132.783Z" fill="#E1E4E5"/>
<path d="M227.696 364.891L198.879 393.708C197.83 394.757 197.83 396.459 198.879 397.508C199.928 398.557 201.63 398.557 202.679 397.508L231.496 368.691C232.546 367.641 232.546 365.94 231.496 364.891C230.447 363.841 228.746 363.841 227.696 364.891Z" fill="#E1E4E5"/>
<path d="M224.876 385.523L216.565 393.834C215.516 394.883 215.516 396.585 216.565 397.634C217.614 398.683 219.316 398.683 220.365 397.634L228.676 389.323C229.726 388.273 229.726 386.572 228.676 385.523C227.627 384.473 225.926 384.473 224.876 385.523Z" fill="#E1E4E5"/>
<path d="M669.342 258.25L696.268 231.324C697.249 230.343 697.249 228.753 696.268 227.772C695.288 226.792 693.698 226.792 692.717 227.772L665.791 254.699C664.81 255.68 664.81 257.27 665.791 258.25C666.771 259.231 668.361 259.231 669.342 258.25Z" fill="#E1E4E5"/>
<path d="M671.977 238.971L679.742 231.206C680.723 230.225 680.723 228.635 679.742 227.654C678.762 226.674 677.172 226.674 676.191 227.654L668.426 235.42C667.445 236.401 667.445 237.99 668.426 238.971C669.407 239.952 670.996 239.952 671.977 238.971Z" fill="#E1E4E5"/>
<path d="M722.395 380.129L711.147 369.417L722.395 358.706L733.642 369.417L722.395 380.129Z" stroke="#E1E4E5" stroke-width="5.471" stroke-linecap="round" stroke-linejoin="round"/>
<path d="M213.424 295.773C213.424 301.692 208.626 306.484 202.7 306.484C196.774 306.484 192 301.669 192 295.773C192 289.853 196.797 285.061 202.724 285.061C208.65 285.061 213.424 289.853 213.424 295.773Z" stroke="#E1E4E5" stroke-width="5.378" stroke-miterlimit="10"/>
<path d="M372.666 146.238C371.21 151.669 374.58 157.291 380.193 158.795C385.806 160.299 391.535 157.115 392.991 151.684C394.446 146.253 391.076 140.631 385.463 139.127C379.85 137.623 374.121 140.807 372.666 146.238Z" fill="white"/>
<path d="M699.522 306.949C697.989 312.671 692.108 316.067 686.386 314.534C680.664 313 677.268 307.119 678.801 301.397C680.334 295.675 686.216 292.279 691.938 293.813C697.66 295.346 701.056 301.227 699.522 306.949Z" fill="#7D53DE"/>
<path d="M609.472 156.781C608.53 160.298 605.433 162.524 602.556 161.753C599.678 160.982 598.109 157.506 599.052 153.989C599.994 150.473 603.09 148.247 605.968 149.018C608.845 149.789 610.414 153.265 609.472 156.781Z" fill="white"/>
<path d="M225.808 190.447H226.026C227.316 207.59 240.916 207.854 240.916 207.854C240.916 207.854 225.919 208.129 225.919 227.938C225.919 208.129 210.923 207.854 210.923 207.854C210.923 207.854 224.517 207.59 225.808 190.447V190.447ZM676.834 149.613H677.021C678.127 163.328 689.784 163.539 689.784 163.539C689.784 163.539 676.93 163.759 676.93 179.606C676.93 163.759 664.076 163.539 664.076 163.539C664.076 163.539 675.728 163.328 676.834 149.613Z" fill="#E1E4E5"/>
<path d="M326.058 447.161L300.431 472.788C299.498 473.721 299.498 475.233 300.431 476.166L300.432 476.167C301.365 477.1 302.878 477.1 303.811 476.167L329.437 450.541C330.37 449.608 330.37 448.095 329.437 447.162L329.436 447.161C328.503 446.229 326.991 446.228 326.058 447.161Z" fill="white"/>
<path d="M347.026 447.161L321.399 472.788C320.466 473.721 320.466 475.233 321.399 476.166L321.4 476.167C322.333 477.1 323.846 477.1 324.779 476.167L350.405 450.541C351.338 449.608 351.338 448.095 350.405 447.162L350.404 447.161C349.471 446.228 347.958 446.228 347.026 447.161Z" fill="white"/>
<path d="M369.304 447.161L343.677 472.788C342.744 473.721 342.744 475.233 343.677 476.166L343.678 476.167C344.611 477.1 346.124 477.1 347.057 476.167L372.683 450.541C373.616 449.608 373.616 448.095 372.683 447.162L372.682 447.161C371.749 446.229 370.237 446.228 369.304 447.161Z" fill="white"/>
<path d="M584.434 476.587C594.491 476.599 608.965 473.98 620.822 462.553C632.676 451.124 626.012 444.022 614.243 442.735C602.473 441.448 588.359 446.815 579.22 458.309C570.081 469.803 576.178 476.578 584.434 476.587V476.587Z" fill="url(#paint0_linear_0_1)"/>
<path d="M398.34 372.335L359.047 333.041L398.34 293.748M516.222 293.748L555.515 333.041L516.222 372.335M472.528 274.105L439.777 391.985" stroke="white" stroke-width="28" stroke-linecap="round" stroke-linejoin="round"/>
</g>
<defs>
<linearGradient id="paint0_linear_0_1" x1="637.595" y1="480.347" x2="546.095" y2="428.686" gradientUnits="userSpaceOnUse">
<stop stop-color="white"/>
<stop offset="1" stop-color="#EEEEEE"/>
</linearGradient>
<clipPath id="clip0_0_1">
<rect width="900" height="600" fill="white"/>
</clipPath>
</defs>
</svg>
